HIERARCHY
ROOT Hips
{
	OFFSET 0.00000 0.00000 0.00000
	CHANNELS 6 Xposition Yposition Zposition Yrotation Zrotation Xrotation 
	JOINT Lumbar
	{
		OFFSET 0 0 0
		CHANNELS 3 Zrotation Xrotation Yrotation
		JOINT Neck
		{
			OFFSET 0.00 0.2701 0.00
			CHANNELS 3 Zrotation Xrotation Yrotation
			End Site
			{
				OFFSET 0.00 0.1379 0.00
			}
		}
		JOINT RightShoulder
		{
			OFFSET 0.0119 0.2289 0.1181
			CHANNELS 3 Zrotation Xrotation Yrotation
			JOINT RightElbow
			{
				OFFSET 0.00 -0.1475 0.00
				CHANNELS 2 Zrotation Yrotation
				JOINT RightWrist
				{
					OFFSET 0.00 -0.1605 0.00
					CHANNELS 2 Zrotation Xrotation
					End Site
					{
						OFFSET 0.0040 -0.1068 0.0006
					}
				}
			}
		}
		JOINT LeftShoulder
		{
			OFFSET 0.0119 0.2289 -0.1181
			CHANNELS 3 Zrotation Xrotation Yrotation
			JOINT LeftElbow
			{
				OFFSET 0.00 -0.1475 0.00
				CHANNELS 2 Zrotation Yrotation
				JOINT LeftWrist
				{
					OFFSET 0.00 -0.1605 0.00
					CHANNELS 2 Zrotation Xrotation
					End Site
					{
						OFFSET 0.0040 -0.1068 -0.0006
					}
				}
			}
		}
	}
	JOINT RightHip
	{
		OFFSET 0.0316 -0.0424 0.0458
		CHANNELS 3 Zrotation Xrotation Yrotation
		JOINT RightKnee
		{
			OFFSET 0.00 -0.2438 0.00
			CHANNELS 1 Zrotation
			JOINT RightAnkle
			{
				OFFSET 0.00 -0.2449 0.00
				CHANNELS 3 Zrotation Xrotation Yrotation
				End Site
				{
					OFFSET 0.1237 -0.0542 0.0051
				}
			}
		}
	}
	JOINT LeftHip
	{
		OFFSET 0.0316 -0.0424 -0.0458
		CHANNELS 3 Zrotation Xrotation Yrotation
		JOINT LeftKnee
		{
			OFFSET 0.00 -0.2438 0.00
			CHANNELS 1 Zrotation
			JOINT LeftAnkle
			{
				OFFSET 0.00 -0.2449 0.00
				CHANNELS 3 Zrotation Xrotation Yrotation
				End Site
				{
					OFFSET 0.1237 -0.0542 -0.0051
				}
			}
		}
	}
}
MOTION
Frames: 19
Frame Time: 0.02
-0.98074 -0.06612 0.40582 534.93566 -40.11432 3.42444 0.31748 13.21105 -8.97042 -42.65416 -17.41493 -2.11993 19.70872 -26.42174 13.72958 59.0708 47.05997 8.88863 -12.94687 20.93115 23.30796 -18.67923 21.55419 -81.67127 1.17773 5.67608 74.43694 -17.17097 10.09285 -61.63278 -7.28396 -3.70651 -4.0717 73.79886 7.90378 15.16925 -69.16623 -6.14417 3.14662 3.73577
-0.97403 -0.07286 0.4054 535.85654 -39.92565 3.26919 -0.56589 12.82021 -8.30992 -43.33602 -16.19104 -2.11993 19.66742 -25.9162 13.55361 57.36302 45.104 9.66215 -13.20936 20.74008 23.54324 -16.29212 21.14219 -81.67786 0.70947 5.68205 76.23855 -17.52545 9.93733 -64.40895 -7.21912 -3.69561 -4.06359 75.83659 8.43661 14.89366 -71.71322 -6.06936 3.06727 3.69483
-0.96748 -0.07932 0.40475 536.688 -39.73855 3.15033 -1.3883 12.38105 -7.62503 -44.05576 -15.14117 -2.11993 19.47377 -25.49501 13.18543 55.47906 44.54591 10.20449 -13.04081 20.53971 23.77082 -13.82096 20.71111 -81.70084 0.33321 5.62277 77.97899 -18.09072 9.46896 -66.90359 -7.14241 -3.6477 -4.03656 77.77067 8.82695 14.49378 -73.98051 -6.03165 3.00228 3.66345
-0.96088 -0.08595 0.40421 537.55822 -39.52661 3.01534 -2.23073 11.9697 -6.95926 -44.76215 -14.01833 -2.11993 19.3082 -25.04062 12.88386 53.70216 43.40137 10.82472 -13.07189 20.32624 23.99473 -11.41746 20.30274 -81.7156 -0.07669 5.58711 79.7159 -18.54247 9.17422 -69.52096 -7.07538 -3.61902 -4.01951 79.72637 9.27433 14.15151 -76.37421 -5.97735 2.93131 3.62792
-0.95416 -0.09244 0.40363 538.43936 -39.41668 2.87663 -3.10645 11.53103 -6.26022 -45.45109 -12.85647 -2.11993 19.31161 -24.56501 12.6658 51.79462 41.99584 11.5649 -13.09889 20.18429 24.25043 -8.86144 19.8238 -81.73247 -0.53668 5.5768 81.5826 -19.06864 8.73269 -72.16023 -6.99414 -3.58066 -3.99709 81.79301 9.76098 13.81066 -78.77714 -5.9215 2.85709 3.5911
-0.94775 -0.09913 0.40308 539.27305 -39.09229 2.75423 -3.89636 11.13839 -5.62449 -46.18539 -11.82133 -2.11993 18.92946 -24.15186 12.23065 50.11934 41.48788 11.99923 -13.02857 19.89006 24.43602 -6.61556 19.49304 -81.74937 -0.86496 5.50146 83.16182 -19.48991 8.52578 -74.68482 -6.93807 -3.55333 -3.98112 83.599 10.12965 13.43451 -81.09046 -5.87794 2.79354 3.55949
-0.94214 -0.10648 0.40267 540.02589 -38.20325 2.67895 -4.48431 10.8895 -5.1689 -47.041 -11.10612 -2.11993 17.5099 -23.9104 11.23092 49.18348 43.10513 11.63405 -12.78116 19.1988 24.44724 -5.22702 19.56049 -81.76174 -0.84739 5.22398 84.00455 -19.57178 9.07033 -76.98753 -6.95591 -3.56725 -3.98853 84.75369 10.20367 12.99697 -83.24221 -5.85824 2.7544 3.53917
-0.93686 -0.11403 0.40231 540.72855 -37.09331 2.61743 -4.98416 10.68807 -4.7779 -47.94027 -10.51247 -2.11993 15.70988 -23.72548 10.02185 48.48061 45.58605 10.97029 -12.45098 18.35125 24.38434 -4.16078 19.78279 -81.77432 -0.69993 4.89096 84.5522 -19.54087 9.85879 -79.17891 -6.99866 -3.59316 -4.00285 85.64051 10.16317 12.52638 -85.30841 -5.84988 2.72591 3.524
-0.93145 -0.12148 0.40194 541.43581 -36.06678 2.54257 -5.51162 10.46226 -4.35758 -48.81615 -9.85652 -2.11993 14.09131 -23.50172 8.91726 47.63775 47.68814 10.4499 -12.16646 17.56176 24.34477 -2.96375 19.94492 -81.78673 -0.6115 4.6069 85.20927 -19.56005 10.52064 -81.40618 -7.0285 -3.61245 -4.01336 86.62333 10.17705 12.06636 -87.40309 -5.83697 2.69361 3.50704
-0.92594 -0.12897 0.40151 542.21757 -35.11263 2.49796 -6.09035 10.24685 -3.93618 -49.70788 -9.23475 -2.11993 12.43172 -23.33597 7.76727 46.93103 49.78512 9.88918 -11.83499 16.82625 24.3511 -1.69762 20.06007 -81.79803 -0.51633 4.21652 85.97203 -19.59013 11.23915 -83.69052 -7.06476 -3.63553 -4.0261 87.71602 10.17785 11.62073 -89.53656 -5.82269 2.65734 3.48802
-0.92073 -0.1364 0.40121 542.83245 -33.95436 2.39424 -6.54096 10.02137 -3.53283 -50.57702 -8.57021 -2.11993 10.76864 -23.06226 6.66364 46.0001 52.07382 9.34446 -11.58494 15.94176 24.24127 -0.6525 20.31395 -81.81397 -0.41028 4.04022 86.44072 -19.56972 11.90004 -85.8271 -7.09365 -3.65386 -4.03602 88.5115 10.1785 11.13907 -91.56682 -5.81362 2.63183 3.47448
-0.91624 -0.1438 0.40118 543.00731 -32.29464 2.11445 -6.66882 9.75971 -3.16284 -51.36628 -7.74361 -2.11993 9.19404 -22.47195 5.74939 44.38311 54.72676 8.91846 -11.60172 14.68083 23.85524 -0.1474 20.8821 -81.83382 -0.26949 4.42285 86.20989 -19.42116 12.35878 -87.63606 -7.09646 -3.65793 -4.03727 88.60473 10.22485 10.56512 -93.38264 -5.81476 2.6321 3.47408
-0.91206 -0.15111 0.40126 543.01492 -30.43611 1.77629 -6.66861 9.48608 -2.80939 -52.13094 -6.87227 -2.11993 7.62853 -21.77179 4.88842 42.53701 57.52644 8.51978 -11.70185 13.2764 23.35022 0.14666 21.59102 -81.8685 -0.13266 5.02931 85.68619 -19.22736 12.74975 -89.29133 -7.09101 -3.65671 -4.03541 88.39901 10.27258 9.95712 -95.08944 -5.82084 2.64299 3.47911
-0.90779 -0.15836 0.40131 543.09387 -28.66259 1.47085 -6.72203 9.21586 -2.44852 -52.91299 -6.02907 -2.11993 6.05677 -21.12421 3.99701 40.80101 60.22293 8.10871 -11.75111 11.93941 22.88209 0.54352 22.25518 -81.89124 -0.01431 5.56671 85.27036 -19.06433 13.16233 -90.98391 -7.08911 -3.65689 -4.03452 88.29561 10.30818 9.36556 -96.81535 -5.82535 2.64986 3.48211
-0.90331 -0.16605 0.4013 543.19031 -26.90176 1.13971 -6.79456 8.95521 -2.08808 -53.67634 -5.15454 -2.11993 4.48204 -20.46627 3.12319 39.04054 63.10828 7.68676 -11.85009 10.58603 22.48291 0.90354 22.84123 -81.90073 0.20734 5.97411 84.95034 -18.85572 13.62156 -92.81108 -7.08878 -3.66152 -4.03567 88.32325 10.38718 8.76753 -98.6676 -5.82735 2.65382 3.48351
-0.89936 -0.17278 0.40143 543.21175 -25.07285 0.84815 -6.79435 8.67194 -1.73161 -54.46473 -4.33643 -2.11993 2.91877 -19.80453 2.22973 37.28272 65.61899 7.29813 -11.86891 9.23665 21.91412 1.29007 23.62436 -81.98548 0.19477 6.6938 84.36551 -18.73108 13.96498 -94.3213 -7.08307 -3.65568 -4.03184 88.01193 10.379 8.17677 -100.2307 -5.83569 2.66608 3.48939
-0.89675 -0.17694 0.40195 543.06325 -23.08306 0.67907 -6.65639 8.32258 -1.36727 -55.39162 -3.6558 -2.11993 1.40433 -19.14685 1.25853 35.51102 67.08413 6.99668 -11.62606 7.9174 20.89685 1.8368 24.8927 -81.8789 -0.31808 8.32836 83.11912 -18.86434 13.99879 -95.00839 -7.063 -3.62051 -4.01413 86.82706 10.11894 7.60224 -101.03358 -5.85965 2.69965 3.50678
-0.89469 -0.18013 0.4026 542.846 -21.03715 0.55184 -6.44409 7.95195 -1.00927 -56.33221 -3.03867 -2.11993 -0.0996 -18.49161 0.27008 33.76432 68.15196 6.73051 -11.30412 6.61059 19.71626 2.41067 26.35933 -81.9088 -1.09005 10.25015 81.61879 -19.08165 13.91801 -95.37983 -7.03793 -3.57522 -3.99162 85.31547 9.77387 7.03847 -101.54773 -5.88992 2.74093 3.52835
-0.8924 -0.18372 0.40318 542.66295 -19.03167 0.40627 -6.24555 7.59502 -0.65716 -57.22516 -2.41062 -2.11993 -1.62038 -17.84245 -0.7042 32.05427 69.38859 6.44658 -11.03159 5.3098 18.6154 2.95288 27.74918 -82.15161 -1.84496 11.96983 80.23681 -19.25093 13.89321 -95.88669 -7.01608 -3.53569 -3.97188 83.96095 9.47516 6.47812 -102.18673 -5.91768 2.77801 3.54768
